<?xml version="1.0" encoding="UTF-8"?>
<svg xmlns="http://www.w3.org/2000/svg" version="1.1" viewBox="0 0 623.6 331.7">
  <defs>
    <style>
      .cls-1 {
        fill: #f93;
      }

      .cls-2 {
        fill: #f63;
      }

      .cls-3 {
        fill: #066;
      }
    </style>
  </defs>
  <!-- Generator: Adobe Illustrator 28.7.1, SVG Export Plug-In . SVG Version: 1.2.0 Build 142)  -->
  <g>
    <g id="Layer_1">
      <g id="Layer_1-2" data-name="Layer_1">
        <g id="Lag_2">
          <g id="Lag_1-2">
            <path class="cls-3" d="M95.7,272.8L229.2,40.5l-10-17.4c-15.4-26.8-54-26.8-69.4,0L8.4,269.1c-15.3,26.7,3.9,59.9,34.7,59.9h70.5c-20.3-9.2-30.1-34.8-17.9-56.2Z"/>
            <path class="cls-2" d="M580.5,328.8h-282.8c-30.8,0-50-33.3-34.7-59.9L404.4,22.9c15.4-26.8,54-26.8,69.4,0l141.4,246c15.3,26.6-3.9,59.9-34.7,59.9h0Z"/>
            <path class="cls-1" d="M221.4,272.8L354.9,40.5l-10-17.4c-15.4-26.8-54-26.8-69.4,0l-141.4,246c-15.3,26.7,3.9,60,34.7,60h70.5c-20.2-9.3-30.1-34.9-17.9-56.3h0Z"/>
          </g>
        </g>
      </g>
    </g>
  </g>
</svg>